<svg width="24.000000" height="24.000000" viewBox="0 0 24 24" fill="none" xmlns="http://www.w3.org/2000/svg" xmlns:xlink="http://www.w3.org/1999/xlink">
	<defs>
		<clipPath id="clip3_35">
			<rect id="Стрелка вверху справа" width="24.000000" height="24.000000" fill="white" fill-opacity="0"/>
		</clipPath>
	</defs>
	<g clip-path="url(#clip3_35)">
		<path id="path" d="M9.52 6.23L9.5 6.25C9.08 6.25 8.75 5.92 8.75 5.5C8.75 5.07 9.08 4.75 9.5 4.75L9.52 4.76L9.52 6.23ZM19.23 14.48L19.25 14.5C19.25 14.92 18.92 15.25 18.5 15.25C18.08 15.25 17.75 14.92 17.75 14.5L17.77 14.48L19.23 14.48Z" fill="#000000" fill-opacity="0" fill-rule="nonzero"/>
		<path id="path" d="M9.5 5.5L18.5 5.5L18.5 14.5" stroke="currentColor" stroke-opacity="1.000000" stroke-width="1.500000" stroke-linejoin="round" stroke-linecap="round"/>
		<path id="path" d="M6.3 18.73L6.3 18.75C6 19.05 5.53 19.05 5.24 18.75C4.94 18.46 4.94 17.99 5.24 17.69L5.26 17.69L6.3 18.73ZM17.96 4.99L17.96 4.96C18.26 4.67 18.73 4.67 19.03 4.96C19.32 5.26 19.32 5.73 19.03 6.03L19 6.03L17.96 4.99Z" fill="#000000" fill-opacity="0" fill-rule="nonzero"/>
		<path id="path" d="M5.77 18.22L18.49 5.5" stroke="currentColor" stroke-opacity="1.000000" stroke-width="1.500000" stroke-linejoin="round" stroke-linecap="round"/>
	</g>
</svg>
