<svg width="40.000000" height="40.000000" viewBox="0 0 40 40" fill="none" xmlns="http://www.w3.org/2000/svg" xmlns:xlink="http://www.w3.org/1999/xlink">
	<defs>
		<clipPath id="clip3_109">
			<rect id="github " width="40.000000" height="40.000000" fill="currentColor" fill-opacity="0"/>
		</clipPath>
	</defs>
	<g clip-path="url(#clip3_109)">
		<path id="path" d="M20 3.33C10.79 3.33 3.33 10.79 3.33 20C3.33 29.2 10.79 36.66 20 36.66C29.2 36.66 36.66 29.2 36.66 20C36.66 10.79 29.2 3.33 20 3.33ZM0 20C0 8.95 8.95 0 20 0C31.04 0 40 8.95 40 20C40 31.04 31.04 40 20 40C8.95 40 0 31.04 0 20Z" fill="currentColor" fill-opacity="1.000000" fill-rule="evenodd"/>
		<path id="path" d="M15.98 37.89C15.82 37.68 15.82 35.83 15.98 32.33C14.25 32.39 13.16 32.27 12.71 31.97C12.03 31.52 11.34 30.13 10.74 29.16C10.13 28.18 8.78 28.03 8.24 27.81C7.7 27.59 7.56 26.7 9.74 27.38C11.92 28.05 12.02 29.88 12.71 30.31C13.4 30.74 15.04 30.55 15.78 30.2C16.53 29.86 16.47 28.58 16.6 28.08C16.77 27.61 16.18 27.5 16.17 27.5C15.44 27.5 11.62 26.67 10.57 22.97C9.53 19.27 10.88 16.86 11.6 15.82C12.08 15.13 12.04 13.65 11.47 11.39C13.52 11.13 15.11 11.77 16.22 13.33C16.22 13.34 17.69 12.46 20 12.46C22.31 12.46 23.12 13.17 23.76 13.33C24.39 13.48 24.9 10.61 28.8 11.39C27.99 12.99 27.3 15 27.82 15.82C28.34 16.64 30.39 19.26 29.13 22.97C28.3 25.45 26.65 26.96 24.19 27.5C23.91 27.59 23.77 27.73 23.77 27.93C23.77 28.23 24.15 28.27 24.7 29.67C25.07 30.61 25.09 33.29 24.78 37.7C23.99 37.9 23.37 38.04 22.93 38.11C22.15 38.23 21.3 38.3 20.47 38.33C19.63 38.35 19.34 38.35 18.19 38.24C17.42 38.17 16.69 38.05 15.98 37.89Z" fill="currentColor" fill-opacity="1.000000" fill-rule="evenodd"/>
	</g>
</svg>
