<svg width="40.000000" height="33.333382" viewBox="0 0 40 33.3334" fill="none" xmlns="http://www.w3.org/2000/svg" xmlns:xlink="http://www.w3.org/1999/xlink">
	<defs>
		<clipPath id="clip3_103">
			<rect id="Telegram" width="40.000000" height="33.333382" fill="currentColor" fill-opacity="0"/>
		</clipPath>
	</defs>
	<g clip-path="url(#clip3_103)">
		<path id="path" d="M36.58 0.29C36.58 0.29 40.29 -1.15 39.98 2.35C39.87 3.79 38.95 8.84 38.23 14.31L35.76 30.49C35.76 30.49 35.56 32.86 33.71 33.27C31.86 33.68 29.08 31.83 28.57 31.41C28.16 31.1 20.86 26.47 18.29 24.2C17.57 23.58 16.75 22.34 18.39 20.9L29.18 10.6C30.42 9.36 31.65 6.47 26.51 9.98L12.12 19.77C12.12 19.77 10.48 20.8 7.39 19.87L0.71 17.81C0.71 17.81 -1.75 16.26 2.46 14.72C12.74 9.87 25.38 4.93 36.58 0.29Z" fill="currentColor" fill-opacity="1.000000" fill-rule="nonzero"/>
	</g>
</svg>
